<?xml version="1.0" standalone="no"?>
<!DOCTYPE svg PUBLIC "-//W3C//DTD SVG 20010904//EN"
 "http://www.w3.org/TR/2001/REC-SVG-20010904/DTD/svg10.dtd">
<svg version="1.0" xmlns="http://www.w3.org/2000/svg"
 width="148.000000pt" height="248.000000pt" viewBox="0 0 148.000000 248.000000"
 preserveAspectRatio="xMidYMid meet">
<metadata>
Created by potrace 1.16, written by Peter Selinger 2001-2019
</metadata>
<g transform="translate(0.000000,248.000000) scale(0.100000,-0.100000)"
fill="#000000" stroke="none">
<path d="M0 1240 l0 -1240 740 0 740 0 0 1240 0 1240 -740 0 -740 0 0 -1240z
m900 1090 l0 -50 -150 0 -150 0 0 50 0 50 150 0 150 0 0 -50z m100 -200 l0
-50 100 0 100 0 0 -50 0 -50 50 0 50 0 0 -300 0 -300 -50 0 -50 0 0 -50 0 -50
-450 0 -450 0 0 50 0 50 -50 0 -50 0 0 300 0 300 50 0 50 0 0 50 0 50 100 0
100 0 0 50 0 50 250 0 250 0 0 -50z m-600 -1000 l0 -50 50 0 50 0 0 50 0 50
250 0 250 0 0 -50 0 -50 50 0 50 0 0 50 0 50 50 0 50 0 0 -50 0 -50 50 0 50 0
0 -100 0 -100 50 0 50 0 0 -100 0 -100 -100 0 -100 0 0 200 0 200 -50 0 -50 0
0 -50 0 -50 -50 0 -50 0 0 -50 0 -50 -50 0 -50 0 0 -100 0 -100 50 0 50 0 0
50 0 50 50 0 50 0 0 -200 0 -200 -100 0 -100 0 0 100 0 100 -150 0 -150 0 0
-100 0 -100 -100 0 -100 0 0 200 0 200 50 0 50 0 0 -50 0 -50 50 0 50 0 0 100
0 100 -50 0 -50 0 0 50 0 50 -50 0 -50 0 0 50 0 50 -50 0 -50 0 0 -200 0 -200
-100 0 -100 0 0 100 0 100 50 0 50 0 0 100 0 100 50 0 50 0 0 50 0 50 50 0 50
0 0 -50z m200 -950 l0 -100 -200 0 -200 0 0 50 0 50 50 0 50 0 0 50 0 50 150
0 150 0 0 -100z m600 50 l0 -50 50 0 50 0 0 -50 0 -50 -200 0 -200 0 0 100 0
100 150 0 150 0 0 -50z"/>
<path d="M500 1680 l0 -200 50 0 50 0 0 200 0 200 -50 0 -50 0 0 -200z"/>
<path d="M900 1680 l0 -200 50 0 50 0 0 200 0 200 -50 0 -50 0 0 -200z"/>
</g>
</svg>
