<?xml version="1.0" standalone="no"?>
<!DOCTYPE svg PUBLIC "-//W3C//DTD SVG 20010904//EN"
 "http://www.w3.org/TR/2001/REC-SVG-20010904/DTD/svg10.dtd">
<svg version="1.0" xmlns="http://www.w3.org/2000/svg"
 width="68.000000pt" height="72.000000pt" viewBox="0 0 68.000000 72.000000"
 preserveAspectRatio="xMidYMid meet">

<g transform="translate(0.000000,72.000000) scale(0.100000,-0.100000)"
fill="#000000" stroke="none">
<path d="M228 680 c-7 -11 -24 -20 -38 -20 -32 0 -90 -59 -90 -91 0 -13 -9
-30 -20 -37 -19 -11 -20 -23 -20 -180 0 -156 -1 -168 -20 -180 -11 -7 -20 -20
-20 -30 0 -25 63 -82 91 -82 13 0 30 -9 36 -20 12 -18 25 -19 193 -19 168 0
181 1 193 19 6 11 23 20 36 20 28 0 91 57 91 82 0 10 -9 23 -20 30 -19 12 -20
24 -20 180 0 157 -1 169 -20 180 -11 7 -20 24 -20 37 0 32 -58 91 -90 91 -14
0 -31 9 -38 20 -11 18 -23 20 -112 20 -89 0 -101 -2 -112 -20z m312 -520 c13
0 20 -7 20 -20 0 -15 -7 -20 -25 -20 l-25 0 2 203 3 202 2 -182 c3 -175 4
-183 23 -183z m-260 300 c0 -13 -7 -20 -20 -20 -17 0 -20 -7 -20 -40 0 -33 -3
-40 -20 -40 -18 0 -20 7 -20 60 l0 60 40 0 c33 0 40 -3 40 -20z m120 0 c0 -13
-7 -20 -20 -20 -17 0 -20 -7 -20 -40 0 -33 -3 -40 -20 -40 -18 0 -20 7 -20 60
l0 60 40 0 c33 0 40 -3 40 -20z"/>
</g>
</svg>
