<?xml version="1.0" standalone="no"?>
<!DOCTYPE svg PUBLIC "-//W3C//DTD SVG 20010904//EN"
 "http://www.w3.org/TR/2001/REC-SVG-20010904/DTD/svg10.dtd">
<svg version="1.0" xmlns="http://www.w3.org/2000/svg"
 width="16.000000pt" height="15.000000pt" viewBox="0 0 16.000000 15.000000"
 preserveAspectRatio="xMidYMid meet">

<g transform="translate(0.000000,15.000000) scale(0.100000,-0.100000)"
fill="#000000" stroke="none">
<path d="M0 143 c0 -5 31 -7 69 -5 63 3 69 2 67 -15 -2 -14 -14 -19 -50 -23
-25 -3 -46 -8 -46 -12 0 -5 0 -12 0 -17 0 -5 -10 -12 -22 -14 -13 -2 -4 -5 20
-6 34 -1 42 -4 42 -20 0 -16 -8 -21 -42 -24 -24 -2 -7 -4 37 -3 l80 1 3 73 3
72 -81 0 c-44 0 -80 -3 -80 -7z m150 -69 c0 -10 -13 -14 -51 -14 -61 0 -64 22
-3 30 45 7 54 4 54 -16z m-2 -41 c-4 -22 -58 -31 -58 -10 0 20 10 27 37 27 18
0 24 -5 21 -17z"/>
<path d="M8 93 c7 -3 16 -2 19 1 4 3 -2 6 -13 5 -11 0 -14 -3 -6 -6z"/>
</g>
</svg>
